PathFileType	4	(X/Y/Z)	c:/Users/goper/Files/vsCode/490R/osim_files/C15/C15_Slow_05.trc
DataRate	CameraRate	NumFrames	NumMarkers	Units                	OrigDataRate	OrigDataStartFrame	OrigNumFrames
250.00	250.00	4	36	mm	250.0	1874	2498
                Frame#	Time	LPSIS			LASIS			LTH1			LTH2			LTH3			LTH4			LLFE			LMFE			LSH1			LSH2			LSH3			LSH4			LLMAL			LMMAL			LCAL			LMTP5			LTOE			LMTP1			RPSIS			RASIS			RTH1			RTH2			RTH3			RTH4			RLFE			RMFE			RSH1			RSH2			RSH3			RSH4			RLMAL			RMMAL			RCAL			RMTP1			RTOE			RMTP5		
		X1	Y1	Z1	X2	Y2	Z2	X3	Y3	Z3	X4	Y4	Z4	X5	Y5	Z5	X6	Y6	Z6	X7	Y7	Z7	X8	Y8	Z8	X9	Y9	Z9	X10	Y10	Z10	X11	Y11	Z11	X12	Y12	Z12	X13	Y13	Z13	X14	Y14	Z14	X15	Y15	Z15	X16	Y16	Z16	X17	Y17	Z17	X18	Y18	Z18	X19	Y19	Z19	X20	Y20	Z20	X21	Y21	Z21	X22	Y22	Z22	X23	Y23	Z23	X24	Y24	Z24	X25	Y25	Z25	X26	Y26	Z26	X27	Y27	Z27	X28	Y28	Z28	X29	Y29	Z29	X30	Y30	Z30	X31	Y31	Z31	X32	Y32	Z32	X33	Y33	Z33	X34	Y34	Z34	X35	Y35	Z35	X36	Y36	Z36

1874	7.49200	-2272.70142	1032.60120	339.85297	-2442.97681	1013.44727	392.23593	-2388.63062	620.37451	453.97632	-2390.50586	574.74884	438.32394	-2438.84033	631.30457	445.63904	-2441.44409	586.44208	435.46191	-2406.42114	500.95267	415.10757	-2403.21973	487.87622	297.47833	-2344.99805	393.18384	432.41122	-2341.06714	347.24042	432.55878	-2403.92285	385.32776	425.01614	-2394.76660	341.44269	428.60489	-2341.91162	88.42480	361.07202	-2360.94385	116.21940	274.44455	-2281.00171	66.92723	316.80914	-2464.42163	45.47879	380.31906	-2519.49316	68.62106	317.71442	-2480.26562	38.97104	259.93384	-2263.12402	1027.82446	220.63338	-2412.36572	1005.62738	145.45013	-2438.57788	640.79126	73.95461	-2454.46973	595.84113	79.79594	-2498.04248	654.13245	78.38095	-2505.33325	606.94653	79.51128	-2484.15063	509.43884	98.09760	-2490.05005	489.59204	220.68008	-2368.19580	486.59451	95.70820	-2336.21216	457.31592	95.35198	-2402.58691	433.49225	88.44917	-2366.41260	416.15707	84.27558	-2158.31641	265.03488	159.90828	-2208.28589	250.58841	239.09114	-2114.32788	299.86157	215.58388	-2208.76685	98.75452	239.72337	-2235.72363	100.67950	178.42108	-2164.14478	132.64395	128.57614
1875	7.49600	-2275.75171	1032.82214	339.84799	-2445.96533	1013.52429	392.47021	-2390.06152	620.42230	453.98093	-2391.95752	574.93988	438.47534	-2440.39429	631.25311	445.69974	-2442.95605	586.32483	435.54514	-2407.54956	500.92831	415.13461	-2404.54199	487.88074	297.57104	-2344.69263	392.08771	431.56006	-2341.88428	347.34384	432.53406	-2404.79370	385.27530	425.01257	-2395.36206	341.41205	428.39493	-2341.99121	88.51103	361.01776	-2361.07349	116.31934	274.41382	-2281.02026	67.04977	316.75974	-2464.37305	45.44857	380.34116	-2519.50244	68.52730	317.74213	-2480.29883	38.98066	259.92447	-2266.12793	1028.27881	220.47446	-2415.80737	1006.18695	145.68193	-2444.51636	641.88416	73.54713	-2459.01538	597.30298	79.13012	-2503.81323	655.73499	78.23677	-2511.25586	608.64539	79.44890	-2490.67065	510.78317	98.06238	-2496.04419	491.07367	219.82567	-2374.81982	486.88751	95.84550	-2343.20459	457.40457	95.52577	-2409.49707	433.77090	88.72424	-2373.77954	416.46130	84.35804	-2165.43652	262.38678	162.38075	-2217.01123	249.75787	238.96568	-2122.09741	297.41229	215.48535	-2221.08813	98.84430	238.02075	-2247.54175	100.97755	177.81255	-2176.11255	131.74054	128.98463
1876	7.50000	-2278.53394	1033.15674	339.99573	-2448.87891	1013.55243	392.72308	-2391.78296	620.47876	454.02698	-2393.58496	575.05902	438.58936	-2442.10913	631.02087	445.78204	-2445.23608	586.46796	436.06564	-2408.62671	500.86591	415.28610	-2405.77686	487.80713	297.63138	-2346.71265	393.38400	432.39352	-2342.59180	347.42624	432.54150	-2406.21875	385.47577	425.32370	-2396.05688	341.34842	428.35156	-2342.12964	88.55167	361.00641	-2361.21484	116.40530	274.33698	-2281.10522	67.16386	316.68246	-2464.36035	45.40805	380.41272	-2519.53735	68.42995	317.80759	-2480.33813	38.97508	259.92410	-2270.74146	1028.39563	220.74478	-2419.17822	1006.65076	145.94145	-2450.13452	642.98285	73.31572	-2466.49634	598.31555	79.31815	-2509.37109	657.26361	78.17119	-2517.16699	610.21625	79.33771	-2497.09058	512.09845	98.05482	-2503.16333	492.72202	220.63112	-2381.45776	487.15509	96.08559	-2350.53101	457.15637	95.71316	-2416.43872	433.94577	88.98730	-2381.16064	416.68829	84.44188	-2175.73389	261.92520	159.85002	-2225.88867	248.58687	238.93126	-2130.07275	294.71240	215.40361	-2232.36377	97.57932	238.25574	-2258.79517	100.84209	177.06204	-2187.31616	130.73450	128.03648
1877	7.50400	-2281.56079	1033.25281	340.02234	-2451.99194	1013.59406	393.04489	-2393.31445	620.52710	454.08194	-2394.75781	574.93341	438.43823	-2443.88623	630.87177	445.82700	-2445.96851	586.02637	435.72968	-2409.82935	500.77411	415.29535	-2407.18164	487.75955	297.68036	-2346.37451	392.29712	431.51450	-2343.22388	347.51065	432.50226	-2407.04004	385.46210	425.34042	-2396.68286	341.27429	428.33389	-2342.26221	88.61958	360.97919	-2360.96313	116.36649	274.58392	-2281.08643	67.26258	316.68234	-2464.38379	45.38212	380.47342	-2519.59546	68.34457	317.86285	-2480.13770	38.94390	260.38379	-2273.66919	1028.62830	220.64081	-2422.63770	1007.18286	146.16737	-2455.68506	644.23206	73.05400	-2470.88403	599.76837	78.76895	-2514.90552	658.81781	78.06868	-2523.04224	611.83246	79.26218	-2503.59912	513.48456	98.08431	-2508.95288	494.07257	219.77180	-2388.12451	487.29767	96.26456	-2357.13623	457.10764	95.88469	-2423.25049	434.04282	89.26469	-2388.46558	416.85379	84.52637	-2184.67969	260.11786	159.67412	-2234.98438	247.35857	238.82684	-2138.15527	291.80954	215.36636	-2244.04565	96.38033	235.78123	-2270.68335	100.70101	176.34296	-2198.69946	129.23796	127.55494
